<svg width="400" height="400" viewBox="0 0 400 400" fill="none" xmlns="http://www.w3.org/2000/svg">
<path d="M43.6186 25.1107C47.2487 17.2493 52.086 11.3662 58.1308 7.4614C64.2042 3.42295 70.6599 1.02965 77.4979 0.281528C84.4939 -0.44249 91.5993 0.229984 98.8144 2.29895C106.216 4.25843 112.902 7.2813 118.872 11.3676C125.001 15.478 130.062 20.3911 134.057 26.107C138.08 31.6888 140.447 37.7769 141.16 44.3705C141.901 50.8307 140.477 57.5117 136.888 64.4134C133.3 71.3154 127.066 78.0196 118.186 84.5265C123.495 87.1317 128.409 89.677 132.93 92.1615C137.45 94.6463 141.096 97.4114 143.867 100.457C146.797 103.526 148.824 107.009 149.948 110.907C151.072 114.804 151.065 119.425 149.926 124.77C148.986 129.179 147.043 133.711 144.096 138.365C141.149 143.02 137.428 147.487 132.933 151.767C128.594 156.07 123.668 160.077 118.154 163.787C112.825 167.387 107.202 170.46 101.284 173.004C95.3666 175.549 89.4336 177.401 83.4851 178.562C77.7227 179.612 72.2385 179.739 67.0326 178.944C63.5622 178.413 60.5692 176.023 58.0535 171.776C55.5381 167.528 53.3579 162.089 51.5126 155.461C49.6673 148.832 48.1006 141.279 46.8118 132.804C45.523 124.329 44.5279 115.622 43.8262 106.685C43.1533 97.6134 42.6882 88.712 42.4315 79.9806C42.2032 71.1152 42.0692 62.9544 42.0294 55.4976C42.1473 48.0652 42.2883 41.6709 42.4522 36.3152C42.8026 30.8498 43.1913 27.1149 43.6186 25.1107ZM67.2433 118.336C66.7593 120.608 66.7495 123.711 67.2141 127.645C67.6788 131.579 68.459 135.562 69.5547 139.593C70.8083 143.648 72.2765 147.46 73.9593 151.028C75.6706 154.463 77.7533 156.92 80.2075 158.399C82.1882 159.806 84.8052 160.137 88.0589 159.393C91.3408 158.515 94.7654 156.969 98.3322 154.755C102.085 152.431 105.752 149.749 109.332 146.709C112.94 143.536 116.219 140.381 119.168 137.244C122.274 134.132 124.772 131.203 126.661 128.456C128.735 125.6 129.944 123.37 130.285 121.767C131.026 118.292 131.072 115.402 130.423 113.095C129.803 110.655 128.531 108.598 126.607 106.924C124.841 105.274 122.516 103.953 119.633 102.96C116.907 101.991 113.809 101.242 110.338 100.711C106.395 100.108 102.1 100.003 97.4552 100.397C92.8104 100.791 88.3815 101.7 84.1682 103.126C80.1125 104.575 76.4307 106.565 73.1225 109.094C69.9719 111.648 68.0122 114.729 67.2433 118.336ZM66.6221 47.8752C66.1093 50.2801 65.3899 53.2747 64.4631 56.8583C63.5651 60.3081 62.7961 63.9158 62.1566 67.6814C61.5172 71.4468 61.1928 75.2604 61.1844 79.1226C61.1756 82.9844 61.9122 86.4083 63.3934 89.3942C71.3796 89.3737 78.5683 88.1271 84.9593 85.6551C91.5082 83.207 96.9878 80.0435 101.398 76.1646C105.994 72.1764 109.623 67.764 112.282 62.9279C114.942 58.0914 116.548 53.2321 117.1 48.3492C117.809 43.4907 117.408 38.8763 115.896 34.5058C114.542 30.1598 112.042 26.6039 108.396 23.8391C104.778 20.9404 100.051 19.0448 94.2142 18.1524C88.3772 17.2599 81.331 17.8383 73.0754 19.8874C72.8474 20.9563 72.3701 22.815 71.6427 25.4631C71.0732 28.1356 70.3964 30.9297 69.612 33.845C68.9855 36.7847 68.3876 39.5907 67.8181 42.2629C67.2486 44.9354 66.8497 46.8062 66.6221 47.8752Z" fill="black"/>
<path d="M190.106 15.6049C190.928 13.3837 192.314 12.1661 194.265 11.9521C196.347 11.7728 198.437 11.9616 200.535 12.5183C200.928 12.6226 201.629 12.8695 202.637 13.2589C203.776 13.6832 204.477 13.9301 204.739 13.9997C203.859 17.5469 202.712 21.816 201.297 26.8071C199.925 31.687 198.453 37.0284 196.882 42.8316C195.353 48.5237 193.872 54.4726 192.441 60.6787C191.009 66.8847 189.947 73.0666 189.253 79.2244C188.6 85.271 188.358 91.1827 188.525 96.9591C188.733 102.625 189.647 107.745 191.266 112.322C191.552 113.495 191.854 114.429 192.173 115.124C192.664 115.742 193.111 116.287 193.512 116.759C194.085 117.156 194.745 117.514 195.491 117.834C196.277 118.042 197.261 118.303 198.441 118.616C203.817 120.043 209.218 120.622 214.644 120.355C220.202 120.122 225.756 119.705 231.305 119.105C236.855 118.504 242.409 118.088 247.966 117.855C253.524 117.622 259.056 118.237 264.563 119.698C265.743 120.011 267.251 120.411 269.087 120.898C270.964 121.274 272.648 121.782 274.139 122.422C275.63 123.061 276.802 123.982 277.653 125.184C278.504 126.386 278.601 127.875 277.944 129.652C277.328 131.318 274.88 132.68 270.601 133.74C266.362 134.688 261.119 135.432 254.873 135.969C248.668 136.396 241.938 136.683 234.684 136.832C227.561 137.015 220.716 137.028 214.151 136.871C207.717 136.75 202.04 136.524 197.122 136.195C192.246 135.754 189.086 135.343 187.644 134.96C182.924 133.707 179.221 131.261 176.536 127.622C174.022 123.905 172.231 119.406 171.162 114.122C170.264 108.761 169.987 102.894 170.328 96.5212C170.711 90.0368 171.503 83.4173 172.706 76.6627C173.908 69.9082 175.353 63.2788 177.039 56.7745C178.724 50.2702 180.442 44.2623 182.193 38.7508C183.944 33.2392 185.513 28.4115 186.902 24.2674C188.422 20.1583 189.49 17.2708 190.106 15.6049Z" fill="black"/>
<path d="M319.021 98.7325C313.139 100.705 308.003 102.523 303.613 104.186C299.387 105.761 295.32 107.009 291.41 107.929C287.501 108.848 283.429 109.319 279.197 109.342C275.098 109.39 270.168 108.861 264.406 107.754C251.943 105.36 243.442 100.804 238.901 94.0841C234.39 87.2509 233.624 78.2728 236.601 67.1496C237.756 62.8367 239.627 58.482 242.212 54.086C244.798 49.6899 247.972 45.4663 251.733 41.4153C255.659 37.2766 259.978 33.5116 264.69 30.1205C269.433 26.6158 274.507 23.7121 279.914 21.4092C285.321 19.1063 290.813 17.5358 296.391 16.6979C302.134 15.7721 307.886 15.8626 313.648 16.9693C323.084 19.6169 330.108 23.1142 334.722 27.4608C339.365 31.6942 342.408 36.6346 343.857 42.2826C345.334 47.8171 345.77 53.8086 345.172 60.2572C344.603 66.5919 343.706 73.1024 342.478 79.7884C341.388 86.5001 340.427 93.2376 339.604 100.001C338.781 106.764 339.098 113.209 340.557 119.337C337.81 122.748 335.436 125.037 333.434 126.204C331.535 127.509 329.784 127.471 328.181 126.089C326.579 124.708 325.036 121.786 323.554 117.324C322.205 112.889 320.694 106.691 319.021 98.7325ZM253.596 70.7717C251.864 77.2414 251.994 82.2786 253.988 85.8836C256.146 89.4008 260.91 91.8671 268.28 93.2826C273.774 94.3379 279.213 94.5471 284.596 93.9104C290.144 93.1861 295.174 91.7652 299.685 89.6484C304.227 87.418 308.185 84.4786 311.557 80.8303C314.928 77.1818 317.283 72.8605 318.62 67.8665C319.167 65.8235 319.993 62.9988 321.1 59.3925C322.236 55.6728 322.956 51.9325 323.258 48.1719C323.561 44.4113 323.124 41.0456 321.946 38.0745C320.8 34.9903 318.35 33.0879 314.598 32.3672C307.63 31.0289 300.788 31.3256 294.071 33.2578C287.385 35.0764 281.275 37.9005 275.742 41.7305C270.207 45.5602 265.475 50.0811 261.544 55.2929C257.643 60.3912 254.993 65.5506 253.596 70.7717Z" fill="#BFD4E6"/>
<path d="M294.399 250.681C288.517 252.654 283.381 254.472 278.99 256.134C274.764 257.71 270.697 258.957 266.787 259.877C262.878 260.797 258.807 261.268 254.574 261.29C250.476 261.338 245.545 260.809 239.783 259.702C227.321 257.309 218.819 252.752 214.278 246.032C209.768 239.199 209.001 230.221 211.979 219.098C213.134 214.785 215.004 210.43 217.59 206.034C220.176 201.638 223.349 197.415 227.111 193.364C231.037 189.225 235.356 185.46 240.068 182.069C244.81 178.564 249.884 175.66 255.291 173.357C260.698 171.055 266.191 169.484 271.769 168.646C277.511 167.72 283.264 167.811 289.026 168.917C298.461 171.565 305.485 175.062 310.098 179.409C314.741 183.642 317.786 188.583 319.233 194.231C320.71 199.765 321.149 205.757 320.549 212.205C319.981 218.54 319.083 225.051 317.857 231.737C316.764 238.448 315.806 245.186 314.982 251.949C314.157 258.712 314.474 265.158 315.933 271.285C313.189 274.696 310.815 276.985 308.812 278.152C306.912 279.458 305.161 279.419 303.559 278.038C301.956 276.656 300.414 273.734 298.931 269.273C297.583 264.837 296.072 258.64 294.399 250.681ZM228.973 222.72C227.241 229.19 227.372 234.227 229.365 237.832C231.523 241.349 236.287 243.815 243.657 245.231C249.151 246.286 254.59 246.495 259.974 245.859C265.521 245.134 270.551 243.713 275.063 241.597C279.605 239.366 283.562 236.427 286.934 232.779C290.306 229.13 292.66 224.809 293.997 219.815C294.544 217.772 295.371 214.947 296.477 211.341C297.614 207.621 298.334 203.881 298.636 200.12C298.938 196.36 298.501 192.994 297.324 190.023C296.177 186.938 293.728 185.036 289.976 184.315C283.007 182.977 276.165 183.274 269.449 185.206C262.763 187.025 256.653 189.849 251.119 193.679C245.585 197.508 240.852 202.029 236.921 207.241C233.02 212.339 230.371 217.499 228.973 222.72Z" fill="black"/>
<path d="M365.081 265.19C367.403 265.636 369.475 266.67 371.293 268.292C373.295 269.949 374.318 271.737 374.368 273.656C374.635 275.458 373.594 277.247 371.241 279.022C368.887 280.798 364.519 282.027 358.134 282.711C353.474 281.179 350.252 279.526 348.475 277.752C346.914 275.861 346.157 274.125 346.206 272.543C346.474 270.844 347.343 269.341 348.82 268.033C350.519 266.609 352.313 265.521 354.202 264.771C356.316 263.903 358.391 263.507 360.438 263.582C362.528 263.505 364.072 264.041 365.081 265.19ZM385.335 110.601C391.171 107.744 395.146 107.632 397.26 110.265C399.37 112.899 400.264 117.287 399.933 123.429C399.782 129.605 398.684 136.873 396.634 145.23C394.625 153.437 392.465 161.853 390.154 170.479C388.023 179.139 386.014 187.345 384.129 195.098C382.419 202.884 381.582 209.168 381.617 213.948C381.009 216.218 380.305 218.151 379.5 219.747C378.698 221.343 377.709 222.585 376.531 223.473C375.353 224.361 373.703 224.918 371.575 225.146C369.489 225.223 366.837 224.952 363.622 224.335C363.084 224.232 362.609 223.902 362.194 223.345C361.779 222.788 361.589 221.398 361.62 219.177C361.691 216.804 362.067 213.296 362.746 208.653C363.467 203.859 364.673 197.248 366.365 188.822C368.237 180.43 370.586 169.902 373.411 157.239C376.418 144.609 380.39 129.063 385.335 110.601Z" fill="black"/>
<path d="M20.8655 296.532C17.5098 283.924 14.2873 272.147 11.1984 261.204C8.28638 250.139 5.81719 239.39 3.79086 228.955C1.94142 218.4 0.746941 207.77 0.207389 197.064C-0.332162 186.359 0.181078 175 1.74707 162.989C1.87026 162.044 2.09021 160.357 2.40693 157.928C2.90057 155.379 3.32334 152.754 3.67527 150.055C4.0272 147.356 4.3615 144.792 4.67822 142.363C5.17187 139.813 5.48028 138.066 5.60347 137.121C7.38938 134.557 10.1846 132.291 13.9891 130.324C17.953 128.373 21.767 127.568 25.4319 127.911C24.1297 137.898 22.8989 148.575 21.7396 159.941C20.5978 171.172 20.0934 182.463 20.2263 193.814C20.5186 205.18 21.7934 216.432 24.0502 227.571C26.4843 238.591 30.5464 248.875 36.2363 258.423C36.8181 255.199 37.4435 251.637 38.1133 247.738C38.783 243.839 39.6916 239.963 40.839 236.109C42.1461 232.269 43.8338 228.602 45.9021 225.108C47.9707 221.613 50.7031 218.59 54.1 216.039C57.6562 213.503 62.0098 211.656 67.1602 210.498C72.4702 209.356 78.9403 209.21 86.5709 210.06C93.4223 210.701 99.4158 212.355 104.552 215.021C109.847 217.701 114.08 221.103 117.252 225.224C120.601 229.226 122.906 233.813 124.167 238.985C125.605 244.038 125.964 249.33 125.242 254.863C124.274 262.286 121.173 269.373 115.939 276.123C110.704 282.874 104.132 288.748 96.2229 293.746C88.4731 298.758 79.9878 302.607 70.767 305.297C61.5635 307.851 52.4211 308.706 43.3389 307.854C38.7183 307.422 34.3446 306.331 30.2185 304.579C26.1101 302.69 22.9925 300.009 20.8655 296.532ZM87.1425 227.941C83.7621 229.127 80.1876 230.568 76.4183 232.265C72.6489 233.961 68.9689 236.827 65.3786 240.863C61.9652 244.778 58.7477 250.283 55.7261 257.377C52.7046 264.471 50.1716 274.001 48.1276 285.968C48.4463 285.998 49.2342 286.14 50.4914 286.394C51.9079 286.663 52.8551 286.82 53.3332 286.865C57.6351 287.267 62.6444 286.574 68.3607 284.787C74.2367 283.014 79.9439 280.679 85.4826 277.782C91.1806 274.9 96.2053 271.614 100.557 267.923C104.927 264.096 107.756 260.331 109.046 256.627C109.823 254.377 109.608 251.694 108.402 248.575C107.196 245.458 105.414 242.422 103.057 239.47C100.878 236.397 98.3173 233.767 95.377 231.579C92.596 229.407 89.8513 228.194 87.1425 227.941Z" fill="#BFD4E6"/>
<path d="M158.734 182.136C159.358 179.869 160.633 178.567 162.56 178.23C164.621 177.92 166.721 177.976 168.862 178.399C169.264 178.478 169.984 178.68 171.023 179.005C172.197 179.356 172.917 179.558 173.185 179.611C172.619 183.204 171.851 187.533 170.881 192.6C169.941 197.553 168.944 202.973 167.888 208.859C166.864 214.632 165.911 220.658 165.03 226.937C164.149 233.216 163.634 239.448 163.484 245.632C163.365 251.703 163.644 257.614 164.319 263.364C165.025 269 166.387 274.049 168.405 278.51C168.793 279.662 169.177 280.575 169.556 281.247C170.101 281.832 170.594 282.348 171.035 282.794C171.642 283.153 172.331 283.468 173.103 283.74C173.906 283.898 174.91 284.096 176.114 284.334C181.6 285.417 187.038 285.654 192.425 285.045C197.947 284.461 203.449 283.695 208.93 282.746C214.411 281.796 219.913 281.03 225.434 280.447C230.956 279.864 236.527 280.127 242.148 281.237C243.352 281.474 244.891 281.778 246.764 282.148C248.669 282.405 250.393 282.805 251.936 283.348C253.48 283.892 254.729 284.736 255.684 285.881C256.638 287.025 256.866 288.504 256.368 290.317C255.9 292.018 253.578 293.532 249.404 294.857C245.261 296.073 240.098 297.146 233.917 298.075C227.766 298.891 221.08 299.604 213.859 300.211C206.772 300.843 199.948 301.287 193.387 301.546C186.96 301.832 181.28 301.963 176.347 301.945C171.445 301.814 168.258 301.606 166.786 301.314C161.969 300.363 158.061 298.159 155.062 294.697C152.229 291.151 150.046 286.776 148.515 281.575C147.149 276.286 146.355 270.453 146.135 264.076C145.945 257.585 146.153 250.934 146.757 244.123C147.362 237.311 148.218 230.609 149.327 224.016C150.435 217.423 151.62 211.324 152.881 205.717C154.141 200.11 155.282 195.197 156.302 190.977C157.456 186.783 158.266 183.836 158.734 182.136Z" fill="black"/>
<path fill-rule="evenodd" clip-rule="evenodd" d="M281.788 326.576C248.779 385.845 182.839 409.939 121.595 376.573C119.556 375.462 116.971 376.156 115.82 378.102C114.669 380.08 115.389 382.58 117.427 383.691C183.073 419.488 253.87 393.97 289.253 330.464C290.361 328.486 289.587 325.983 287.527 324.908C285.467 323.868 282.896 324.595 281.788 326.576Z" fill="black"/>
<path d="M173.133 351.153C179.952 351.153 185.48 345.817 185.48 339.232C185.48 332.648 179.952 327.312 173.133 327.312C166.314 327.312 160.787 332.648 160.787 339.232C160.787 345.817 166.314 351.153 173.133 351.153Z" fill="black"/>
<path d="M224.245 338.473C230.93 338.473 236.35 333.241 236.35 326.785C236.35 320.328 230.93 315.096 224.245 315.096C217.56 315.096 212.14 320.328 212.14 326.785C212.14 333.241 217.56 338.473 224.245 338.473Z" fill="black"/>
</svg>
