<svg width="428" height="926" viewBox="0 0 428 926" fill="none" xmlns="http://www.w3.org/2000/svg">
<g clip-path="url(#clip0_56:77)">
<rect width="428" height="926" fill="#011538"/>
<g opacity="0.2">
<path d="M600 0H0V375H600V0Z" fill="#011538"/>
<path d="M6.375 68.625V6.375L68.625 68.625H6.375Z" fill="#1D2488"/>
<path d="M81.375 68.625V6.375L143.625 68.625H81.375Z" fill="#1D2488"/>
<path d="M156.375 68.625V6.375L218.625 68.625H156.375Z" fill="#BFD4E6"/>
<path d="M231.375 68.625V6.375L293.625 68.625H231.375Z" fill="#BFD4E6"/>
<path d="M306.375 68.625V6.375L368.625 68.625H306.375Z" fill="#1D2488"/>
<path d="M381.375 68.625V6.375L443.625 68.625H381.375Z" fill="#1D2488"/>
<path d="M6.375 143.625V81.375L68.625 143.625H6.375Z" fill="#BFD4E6"/>
<path d="M81.375 143.625V81.375L143.625 143.625H81.375Z" fill="#BFD4E6"/>
<path d="M156.375 143.625V81.375L218.625 143.625H156.375Z" fill="#1D2488"/>
<path d="M231.375 143.625V81.375L293.625 143.625H231.375Z" fill="#1D2488"/>
<path d="M306.375 143.625V81.375L368.625 143.625H306.375Z" fill="#1D2488"/>
<path d="M381.375 143.625V81.375L443.625 143.625H381.375Z" fill="#BFD4E6"/>
<path d="M6.375 218.625V156.375L68.625 218.625H6.375Z" fill="#BFD4E6"/>
<path d="M81.375 218.625V156.375L143.625 218.625H81.375Z" fill="#1D2488"/>
<path d="M156.375 218.625V156.375L218.625 218.625H156.375Z" fill="#1D2488"/>
<path d="M231.375 218.625V156.375L293.625 218.625H231.375Z" fill="#1D2488"/>
<path d="M306.375 218.625V156.375L368.625 218.625H306.375Z" fill="#1D2488"/>
<path d="M381.375 218.625V156.375L443.625 218.625H381.375Z" fill="#1D2488"/>
<path d="M6.375 293.625V231.375L68.625 293.625H6.375Z" fill="#BFD4E6"/>
<path d="M81.375 293.625V231.375L143.625 293.625H81.375Z" fill="#BFD4E6"/>
<path d="M156.375 293.625V231.375L218.625 293.625H156.375Z" fill="#1D2488"/>
<path d="M231.375 293.625V231.375L293.625 293.625H231.375Z" fill="#BFD4E6"/>
<path d="M306.375 293.625V231.375L368.625 293.625H306.375Z" fill="#1D2488"/>
<path d="M381.375 293.625V231.375L443.625 293.625H381.375Z" fill="#1D2488"/>
<path d="M6.375 368.625V306.375L68.625 368.625H6.375Z" fill="#1D2488"/>
<path d="M81.375 368.625V306.375L143.625 368.625H81.375Z" fill="#BFD4E6"/>
<path d="M156.375 368.625V306.375L218.625 368.625H156.375Z" fill="#BFD4E6"/>
<path d="M231.375 368.625V306.375L293.625 368.625H231.375Z" fill="#BFD4E6"/>
<path d="M306.375 368.625V306.375L368.625 368.625H306.375Z" fill="#BFD4E6"/>
<path d="M381.375 368.625V306.375L443.625 368.625H381.375Z" fill="#1D2488"/>
<path d="M600 375H0V750H600V375Z" fill="#011538"/>
<path d="M6.375 443.625V381.375L68.625 443.625H6.375Z" fill="#1D2488"/>
<path d="M81.375 443.625V381.375L143.625 443.625H81.375Z" fill="#1D2488"/>
<path d="M156.375 443.625V381.375L218.625 443.625H156.375Z" fill="#BFD4E6"/>
<path d="M231.375 443.625V381.375L293.625 443.625H231.375Z" fill="#BFD4E6"/>
<path d="M306.375 443.625V381.375L368.625 443.625H306.375Z" fill="#1D2488"/>
<path d="M381.375 443.625V381.375L443.625 443.625H381.375Z" fill="#1D2488"/>
<path d="M6.375 518.625V456.375L68.625 518.625H6.375Z" fill="#BFD4E6"/>
<path d="M81.375 518.625V456.375L143.625 518.625H81.375Z" fill="#BFD4E6"/>
<path d="M156.375 518.625V456.375L218.625 518.625H156.375Z" fill="#1D2488"/>
<path d="M231.375 518.625V456.375L293.625 518.625H231.375Z" fill="#1D2488"/>
<path d="M306.375 518.625V456.375L368.625 518.625H306.375Z" fill="#1D2488"/>
<path d="M381.375 518.625V456.375L443.625 518.625H381.375Z" fill="#BFD4E6"/>
<path d="M6.375 593.625V531.375L68.625 593.625H6.375Z" fill="#BFD4E6"/>
<path d="M81.375 593.625V531.375L143.625 593.625H81.375Z" fill="#1D2488"/>
<path d="M156.375 593.625V531.375L218.625 593.625H156.375Z" fill="#1D2488"/>
<path d="M231.375 593.625V531.375L293.625 593.625H231.375Z" fill="#1D2488"/>
<path d="M306.375 593.625V531.375L368.625 593.625H306.375Z" fill="#1D2488"/>
<path d="M381.375 593.625V531.375L443.625 593.625H381.375Z" fill="#1D2488"/>
<path d="M6.375 668.625V606.375L68.625 668.625H6.375Z" fill="#BFD4E6"/>
<path d="M81.375 668.625V606.375L143.625 668.625H81.375Z" fill="#BFD4E6"/>
<path d="M156.375 668.625V606.375L218.625 668.625H156.375Z" fill="#1D2488"/>
<path d="M231.375 668.625V606.375L293.625 668.625H231.375Z" fill="#BFD4E6"/>
<path d="M306.375 668.625V606.375L368.625 668.625H306.375Z" fill="#1D2488"/>
<path d="M381.375 668.625V606.375L443.625 668.625H381.375Z" fill="#1D2488"/>
<path d="M6.375 743.625V681.375L68.625 743.625H6.375Z" fill="#1D2488"/>
<path d="M81.375 743.625V681.375L143.625 743.625H81.375Z" fill="#BFD4E6"/>
<path d="M156.375 743.625V681.375L218.625 743.625H156.375Z" fill="#BFD4E6"/>
<path d="M231.375 743.625V681.375L293.625 743.625H231.375Z" fill="#BFD4E6"/>
<path d="M306.375 743.625V681.375L368.625 743.625H306.375Z" fill="#BFD4E6"/>
<path d="M381.375 743.625V681.375L443.625 743.625H381.375Z" fill="#1D2488"/>
<path d="M600 750H0V1125H600V750Z" fill="#011538"/>
<path d="M6.375 818.625V756.375L68.625 818.625H6.375Z" fill="#1D2488"/>
<path d="M81.375 818.625V756.375L143.625 818.625H81.375Z" fill="#1D2488"/>
<path d="M156.375 818.625V756.375L218.625 818.625H156.375Z" fill="#BFD4E6"/>
<path d="M231.375 818.625V756.375L293.625 818.625H231.375Z" fill="#BFD4E6"/>
<path d="M306.375 818.625V756.375L368.625 818.625H306.375Z" fill="#1D2488"/>
<path d="M381.375 818.625V756.375L443.625 818.625H381.375Z" fill="#1D2488"/>
<path d="M6.375 893.625V831.375L68.625 893.625H6.375Z" fill="#BFD4E6"/>
<path d="M81.375 893.625V831.375L143.625 893.625H81.375Z" fill="#BFD4E6"/>
<path d="M156.375 893.625V831.375L218.625 893.625H156.375Z" fill="#1D2488"/>
<path d="M231.375 893.625V831.375L293.625 893.625H231.375Z" fill="#1D2488"/>
<path d="M306.375 893.625V831.375L368.625 893.625H306.375Z" fill="#1D2488"/>
<path d="M381.375 893.625V831.375L443.625 893.625H381.375Z" fill="#BFD4E6"/>
<path d="M6.375 968.625V906.375L68.625 968.625H6.375Z" fill="#BFD4E6"/>
<path d="M81.375 968.625V906.375L143.625 968.625H81.375Z" fill="#1D2488"/>
<path d="M156.375 968.625V906.375L218.625 968.625H156.375Z" fill="#1D2488"/>
<path d="M231.375 968.625V906.375L293.625 968.625H231.375Z" fill="#1D2488"/>
<path d="M306.375 968.625V906.375L368.625 968.625H306.375Z" fill="#1D2488"/>
<path d="M381.375 968.625V906.375L443.625 968.625H381.375Z" fill="#1D2488"/>
</g>
</g>
<defs>
<clipPath id="clip0_56:77">
<rect width="428" height="926" fill="white"/>
</clipPath>
</defs>
</svg>
