<svg width="60" height="60" viewBox="0 0 60 60" fill="none" xmlns="http://www.w3.org/2000/svg">
<path d="M6.54281 3.7666C7.08732 2.5874 7.81291 1.70493 8.71964 1.11921C9.63064 0.513443 10.599 0.154447 11.6247 0.0422292C12.6741 -0.0663735 13.7399 0.0344977 14.8222 0.344843C15.9324 0.638764 16.9353 1.0922 17.8309 1.70514C18.7502 2.3217 19.5094 3.05866 20.1085 3.91604C20.712 4.75332 21.0671 5.66653 21.174 6.65558C21.2851 7.62461 21.0716 8.62675 20.5333 9.66201C19.995 10.6973 19.0599 11.7029 17.7279 12.679C18.5242 13.0698 19.2614 13.4515 19.9395 13.8242C20.6175 14.1969 21.1644 14.6117 21.5801 15.0685C22.0196 15.5289 22.3236 16.0514 22.4922 16.636C22.6609 17.2206 22.6597 17.9137 22.4889 18.7154C22.3479 19.3768 22.0564 20.0566 21.6144 20.7548C21.1724 21.453 20.6143 22.123 19.9399 22.765C19.2892 23.4105 18.5502 24.0116 17.7231 24.5681C16.9238 25.1081 16.0804 25.569 15.1927 25.9507C14.305 26.3324 13.415 26.6102 12.5228 26.7842C11.6584 26.9418 10.8358 26.9609 10.0549 26.8415C9.53435 26.7619 9.08539 26.4035 8.70803 25.7664C8.33073 25.1292 8.0037 24.3134 7.72691 23.3191C7.45012 22.3247 7.21511 21.1919 7.02179 19.9206C6.82847 18.6493 6.6792 17.3433 6.57394 16.0027C6.473 14.642 6.40325 13.3068 6.36474 11.9971C6.33049 10.6673 6.31039 9.44316 6.30443 8.32464C6.3221 7.20979 6.34326 6.25064 6.36785 5.44728C6.4204 4.62747 6.4787 4.06723 6.54281 3.7666ZM10.0865 17.7505C10.0139 18.0912 10.0124 18.5566 10.0821 19.1468C10.1518 19.7369 10.2689 20.3343 10.4332 20.9389C10.6213 21.5472 10.8415 22.1189 11.0939 22.6542C11.3506 23.1695 11.663 23.538 12.0311 23.7599C12.3282 23.9709 12.7208 24.0205 13.2089 23.9089C13.7011 23.7772 14.2148 23.5453 14.7498 23.2132C15.3128 22.8646 15.8628 22.4624 16.3998 22.0064C16.9411 21.5304 17.4329 21.0571 17.8752 20.5866C18.3412 20.1198 18.7159 19.6804 18.9991 19.2684C19.3103 18.8399 19.4916 18.5055 19.5428 18.265C19.6539 17.7439 19.6608 17.3103 19.5635 16.9643C19.4704 16.5982 19.2796 16.2897 18.9911 16.0386C18.7261 15.7911 18.3774 15.5929 17.9449 15.444C17.5361 15.2987 17.0714 15.1863 16.5508 15.1067C15.9592 15.0162 15.315 15.0005 14.6183 15.0596C13.9216 15.1186 13.2572 15.255 12.6252 15.4688C12.0169 15.6863 11.4646 15.9847 10.9684 16.3641C10.4958 16.7472 10.2019 17.2093 10.0865 17.7505ZM9.99333 7.18127C9.91641 7.54202 9.80851 7.9912 9.66948 8.52874C9.53477 9.04621 9.41943 9.58737 9.32351 10.1522C9.22759 10.717 9.17894 11.2891 9.17767 11.8684C9.17636 12.4477 9.28684 12.9612 9.50902 13.4091C10.7069 13.4061 11.7853 13.2191 12.7439 12.8483C13.7262 12.481 14.5482 12.0065 15.2097 11.4247C15.8992 10.8265 16.4434 10.1646 16.8424 9.43918C17.2413 8.71372 17.4822 7.98481 17.5649 7.25238C17.6714 6.52361 17.6112 5.83144 17.3844 5.17587C17.1813 4.52397 16.8063 3.99059 16.2594 3.57586C15.7167 3.14105 15.0076 2.85672 14.1321 2.72286C13.2566 2.58899 12.1997 2.67574 10.9613 2.9831C10.9271 3.14345 10.8555 3.42226 10.7464 3.81947C10.661 4.22034 10.5595 4.63945 10.4418 5.07675C10.3478 5.51771 10.2581 5.93861 10.1727 6.33944C10.0873 6.74031 10.0275 7.02093 9.99333 7.18127Z" fill="black"/>
<path d="M28.5159 2.34074C28.6392 2.00756 28.8471 1.82492 29.1398 1.79281C29.4521 1.76593 29.7656 1.79424 30.0803 1.87774C30.1393 1.8934 30.2444 1.93043 30.3955 1.98884C30.5664 2.05247 30.6715 2.08951 30.7109 2.09995C30.5788 2.63203 30.4068 3.27239 30.1946 4.02106C29.9887 4.75305 29.7679 5.55426 29.5324 6.42474C29.3029 7.27856 29.0809 8.1709 28.8662 9.1018C28.6514 10.0327 28.492 10.96 28.388 11.8837C28.2901 12.7907 28.2536 13.6774 28.2787 14.5439C28.31 15.3937 28.447 16.1618 28.6899 16.8483C28.7328 17.0243 28.7782 17.1644 28.826 17.2686C28.8997 17.3613 28.9666 17.4431 29.0268 17.5139C29.1128 17.5734 29.2118 17.627 29.3236 17.675C29.4416 17.7063 29.5891 17.7455 29.7661 17.7924C30.5725 18.0064 31.3827 18.0933 32.1967 18.0532C33.0303 18.0183 33.8634 17.9558 34.6958 17.8657C35.5283 17.7756 36.3613 17.7132 37.195 17.6782C38.0286 17.6433 38.8585 17.7355 39.6845 17.9547C39.8615 18.0017 40.0877 18.0617 40.3631 18.1348C40.6445 18.1912 40.8972 18.2674 41.1208 18.3633C41.3446 18.4592 41.5203 18.5973 41.6479 18.7776C41.7757 18.9578 41.7902 19.1812 41.6917 19.4478C41.5992 19.6976 41.2321 19.9021 40.5901 20.061C39.9543 20.2033 39.1679 20.3148 38.231 20.3954C37.3002 20.4594 36.2907 20.5025 35.2026 20.5248C34.1341 20.5523 33.1074 20.5542 32.1226 20.5307C31.1575 20.5124 30.3061 20.4786 29.5684 20.4292C28.8369 20.3631 28.363 20.3014 28.1466 20.244C27.4386 20.0561 26.8831 19.6892 26.4803 19.1432C26.1034 18.5858 25.8347 17.9109 25.6743 17.1182C25.5397 16.3142 25.4981 15.4342 25.5492 14.4782C25.6066 13.5055 25.7255 12.5126 25.9059 11.4994C26.0863 10.4862 26.3029 9.49182 26.5558 8.51618C26.8086 7.54054 27.0664 6.63935 27.329 5.81262C27.5916 4.98588 27.827 4.26172 28.0353 3.64012C28.2633 3.02375 28.4235 2.59062 28.5159 2.34074Z" fill="black"/>
<path d="M47.8532 14.8099C46.9709 15.1058 46.2005 15.3785 45.5419 15.6279C44.908 15.8642 44.298 16.0513 43.7115 16.1893C43.1251 16.3272 42.5144 16.3979 41.8795 16.4012C41.2647 16.4085 40.5252 16.3291 39.6608 16.1631C37.7915 15.804 36.5163 15.1205 35.8351 14.1126C35.1586 13.0876 35.0436 11.7409 35.4902 10.0724C35.6634 9.42549 35.944 8.77229 36.3318 8.11288C36.7197 7.45347 37.1958 6.81994 37.76 6.21228C38.3489 5.59148 38.9967 5.02673 39.7035 4.51806C40.4149 3.99236 41.176 3.55681 41.987 3.21137C42.7981 2.86593 43.622 2.63036 44.4587 2.50466C45.3201 2.3658 46.183 2.37937 47.0473 2.54538C48.4626 2.94252 49.5162 3.46711 50.2083 4.1191C50.9047 4.75411 51.3611 5.49517 51.5785 6.34237C51.8001 7.17254 51.8655 8.07127 51.7759 9.03856C51.6904 9.98877 51.5558 10.9653 51.3717 11.9683C51.2081 12.975 51.0641 13.9856 50.9406 15.0001C50.8172 16.0146 50.8646 16.9814 51.0836 17.9005C50.6715 18.4122 50.3154 18.7555 50.0152 18.9305C49.7302 19.1264 49.4676 19.1207 49.2272 18.9134C48.9868 18.7061 48.7555 18.2679 48.5331 17.5986C48.3308 16.9333 48.1041 16.0037 47.8532 14.8099ZM38.0393 10.6157C37.7795 11.5862 37.7992 12.3418 38.0982 12.8825C38.4219 13.4101 39.1365 13.7801 40.242 13.9924C41.0661 14.1507 41.8819 14.182 42.6894 14.0865C43.5216 13.9779 44.2761 13.7648 44.9528 13.4472C45.6341 13.1127 46.2277 12.6718 46.7335 12.1245C47.2393 11.5773 47.5924 10.9291 47.793 10.18C47.875 9.87351 47.999 9.4498 48.165 8.90886C48.3355 8.3509 48.4434 7.78986 48.4887 7.22577C48.5341 6.66169 48.4685 6.15682 48.2919 5.71116C48.1199 5.24853 47.7525 4.96318 47.1897 4.85507C46.1445 4.65432 45.1181 4.69883 44.1107 4.98865C43.1078 5.26144 42.1913 5.68506 41.3612 6.25956C40.5311 6.83401 39.8212 7.51215 39.2316 8.29392C38.6464 9.05867 38.249 9.83258 38.0393 10.6157Z" fill="white"/>
<path d="M44.1598 37.6021C43.2775 37.8981 42.5071 38.1708 41.8486 38.4202C41.2147 38.6565 40.6046 38.8435 40.0181 38.9815C39.4317 39.1195 38.8211 39.1902 38.1862 39.1935C37.5714 39.2008 36.8318 39.1213 35.9675 38.9554C34.0982 38.5963 32.8229 37.9128 32.1418 36.9049C31.4652 35.8799 31.3502 34.5332 31.7969 32.8647C31.9701 32.2178 32.2506 31.5646 32.6385 30.9051C33.0264 30.2457 33.5024 29.6122 34.0667 29.0045C34.6555 28.3837 35.3034 27.819 36.0102 27.3103C36.7215 26.7846 37.4827 26.3491 38.2937 26.0036C39.1048 25.6582 39.9286 25.4226 40.7654 25.2969C41.6267 25.1581 42.4896 25.1717 43.3539 25.3376C44.7692 25.7348 45.8228 26.2594 46.5148 26.9114C47.2112 27.5464 47.6679 28.2874 47.8849 29.1346C48.1065 29.9648 48.1723 30.8635 48.0824 31.8308C47.9971 32.781 47.8625 33.7576 47.6785 34.7605C47.5147 35.7673 47.3709 36.7779 47.2473 37.7924C47.1236 38.8069 47.1712 39.7736 47.39 40.6928C46.9783 41.2045 46.6222 41.5478 46.3218 41.7228C46.0369 41.9187 45.7742 41.9129 45.5338 41.7057C45.2935 41.4984 45.0621 41.0602 44.8397 40.3909C44.6375 39.7256 44.4108 38.7959 44.1598 37.6021ZM34.346 33.408C34.0862 34.3785 34.1058 35.134 34.4048 35.6748C34.7285 36.2024 35.4431 36.5723 36.5486 36.7846C37.3727 36.9429 38.1885 36.9743 38.9961 36.8788C39.8282 36.7702 40.5827 36.557 41.2594 36.2395C41.9408 35.905 42.5343 35.464 43.0401 34.9168C43.5459 34.3695 43.899 33.7213 44.0996 32.9722C44.1816 32.6658 44.3056 32.2421 44.4716 31.7011C44.6421 31.1432 44.7501 30.5821 44.7954 30.018C44.8408 29.454 44.7752 28.9491 44.5986 28.5034C44.4266 28.0408 44.0592 27.7554 43.4964 27.6473C42.4511 27.4466 41.4248 27.4911 40.4173 27.7809C39.4144 28.0537 38.4979 28.4773 37.6679 29.0518C36.8378 29.6263 36.1279 30.3044 35.5382 31.0862C34.953 31.8509 34.5557 32.6248 34.346 33.408Z" fill="black"/>
<path d="M54.7622 39.7785C55.1105 39.8454 55.4212 40.0005 55.694 40.2439C55.9942 40.4924 56.1478 40.7606 56.1552 41.0484C56.1953 41.3187 56.0391 41.587 55.6861 41.8534C55.3331 42.1197 54.6778 42.3041 53.7202 42.4066C53.0211 42.1768 52.5377 41.9289 52.2713 41.6628C52.037 41.3792 51.9236 41.1188 51.931 40.8815C51.9711 40.6266 52.1014 40.4011 52.323 40.205C52.5778 39.9914 52.8469 39.8282 53.1303 39.7157C53.4474 39.5855 53.7587 39.5261 54.0658 39.5373C54.3792 39.5258 54.6108 39.6062 54.7622 39.7785ZM57.8003 16.5901C58.6756 16.1616 59.2718 16.1448 59.589 16.5398C59.9055 16.9348 60.0395 17.593 59.99 18.5143C59.9673 19.4408 59.8026 20.5309 59.495 21.7845C59.1938 23.0155 58.8698 24.2779 58.5231 25.5718C58.2034 26.8709 57.9021 28.1018 57.6193 29.2647C57.3629 30.4327 57.2373 31.3752 57.2426 32.0923C57.1513 32.4327 57.0458 32.7227 56.925 32.9621C56.8047 33.2015 56.6564 33.3878 56.4796 33.521C56.3029 33.6541 56.0554 33.7378 55.7362 33.7719C55.4233 33.7834 55.0255 33.7429 54.5433 33.6502C54.4625 33.6347 54.3913 33.5853 54.329 33.5017C54.2668 33.4182 54.2383 33.2098 54.243 32.8765C54.2536 32.5206 54.31 31.9944 54.4119 31.298C54.52 30.5788 54.701 29.5873 54.9548 28.3233C55.2355 27.0645 55.588 25.4854 56.0116 23.5858C56.4628 21.6914 57.0585 19.3595 57.8003 16.5901Z" fill="black"/>
<path d="M3.12982 44.4798C2.62646 42.5885 2.14309 40.8221 1.67975 39.1805C1.24296 37.5209 0.872579 35.9085 0.568628 34.3433C0.291213 32.76 0.112041 31.1655 0.0311084 29.5596C-0.0498244 27.9538 0.0271616 26.25 0.262061 24.4483C0.280539 24.3066 0.313531 24.0536 0.361039 23.6892C0.435086 23.3068 0.498502 22.9131 0.551291 22.5083C0.60408 22.1034 0.654225 21.7188 0.701733 21.3544C0.77578 20.972 0.822043 20.7099 0.84052 20.5682C1.10841 20.1835 1.52769 19.8436 2.09836 19.5487C2.69295 19.2559 3.26505 19.1353 3.81479 19.1867C3.61946 20.6847 3.43484 22.2862 3.26094 23.9912C3.08967 25.6759 3.01401 27.3695 3.03395 29.0721C3.0778 30.7769 3.26901 32.4648 3.60753 34.1357C3.97265 35.7886 4.58196 37.3312 5.43545 38.7634C5.52272 38.2798 5.61653 37.7456 5.71699 37.1607C5.81745 36.5759 5.95373 35.9944 6.12585 35.4163C6.32191 34.8404 6.57507 34.2903 6.88531 33.7661C7.19561 33.2419 7.60547 32.7885 8.115 32.4058C8.64843 32.0254 9.30148 31.7484 10.074 31.5748C10.8705 31.4034 11.8411 31.3815 12.9856 31.509C14.0133 31.6052 14.9124 31.8532 15.6828 32.2531C16.477 32.6552 17.112 33.1654 17.5879 33.7836C18.0902 34.3839 18.436 35.0719 18.6251 35.8478C18.8408 36.6056 18.8945 37.3995 18.7863 38.2295C18.6412 39.3429 18.176 40.4059 17.3908 41.4185C16.6056 42.4311 15.6198 43.3121 14.4334 44.062C13.271 44.8136 11.9982 45.3911 10.6151 45.7946C9.23452 46.1776 7.86316 46.3059 6.50083 46.1781C5.80774 46.1133 5.15169 45.9497 4.53278 45.6869C3.91651 45.4036 3.44888 45.0013 3.12982 44.4798ZM13.0714 34.1911C12.5643 34.369 12.0281 34.5853 11.4627 34.8397C10.8973 35.0942 10.3453 35.5241 9.80678 36.1295C9.29477 36.7167 8.81215 37.5424 8.35892 38.6066C7.90569 39.6707 7.52575 41.1002 7.21914 42.8952C7.26695 42.8997 7.38513 42.921 7.57371 42.9591C7.78618 42.9995 7.92827 43.023 7.99998 43.0297C8.64527 43.0901 9.39666 42.9862 10.2541 42.718C11.1355 42.4522 11.9916 42.1019 12.8224 41.6673C13.6771 41.235 14.4308 40.7421 15.0836 40.1884C15.739 39.6145 16.1634 39.0497 16.3569 38.4941C16.4734 38.1566 16.4412 37.754 16.2603 37.2863C16.0794 36.8186 15.8121 36.3633 15.4586 35.9204C15.1316 35.4595 14.7476 35.065 14.3065 34.7369C13.8894 34.411 13.4777 34.2291 13.0714 34.1911Z" fill="white"/>
<path d="M23.8101 27.3204C23.9037 26.9803 24.095 26.7851 24.384 26.7346C24.6931 26.688 25.0082 26.6965 25.3293 26.7598C25.3896 26.7717 25.4977 26.802 25.6535 26.8507C25.8295 26.9034 25.9376 26.9337 25.9777 26.9416C25.8929 27.4806 25.7777 28.13 25.6321 28.89C25.4912 29.6329 25.3415 30.4459 25.1832 31.3288C25.0296 32.1948 24.8867 33.0986 24.7545 34.0405C24.6224 34.9824 24.545 35.9171 24.5226 36.8448C24.5048 37.7555 24.5466 38.6421 24.6479 39.5045C24.7538 40.35 24.9581 41.1073 25.2607 41.7765C25.319 41.9493 25.3766 42.0862 25.4334 42.1871C25.5151 42.2749 25.589 42.3522 25.6553 42.419C25.7463 42.4729 25.8497 42.5202 25.9655 42.5609C26.0859 42.5847 26.2364 42.6144 26.4171 42.6501C27.24 42.8125 28.0556 42.8481 28.8638 42.7567C29.692 42.6692 30.5173 42.5543 31.3395 42.4118C32.1617 42.2695 32.987 42.1545 33.8152 42.0671C34.6434 41.9796 35.4791 42.0191 36.3221 42.1855C36.5028 42.2212 36.7336 42.2667 37.0146 42.3222C37.3003 42.3607 37.5589 42.4207 37.7904 42.5023C38.0219 42.5838 38.2093 42.7104 38.3526 42.8821C38.4958 43.0537 38.5299 43.2756 38.4551 43.5476C38.385 43.8027 38.0368 44.0297 37.4106 44.2286C36.7891 44.4109 36.0147 44.5718 35.0875 44.7113C34.1649 44.8337 33.1621 44.9405 32.0789 45.0317C31.0158 45.1264 29.9922 45.193 29.0081 45.2319C28.044 45.2748 27.192 45.2945 26.452 45.2918C25.7167 45.2721 25.2387 45.2409 25.0179 45.1971C24.2953 45.0545 23.7091 44.7238 23.2594 44.2045C22.8344 43.6727 22.507 43.0165 22.2772 42.2362C22.0723 41.4429 21.9533 40.568 21.9202 39.6114C21.8918 38.6378 21.9229 37.6401 22.0136 36.6184C22.1043 35.5967 22.2328 34.5913 22.3991 33.6024C22.5653 32.6135 22.743 31.6986 22.9321 30.8575C23.1212 30.0165 23.2922 29.2795 23.4452 28.6465C23.6184 28.0174 23.74 27.5754 23.8101 27.3204Z" fill="black"/>
<path fill-rule="evenodd" clip-rule="evenodd" d="M42.2682 48.9864C37.3168 57.8767 27.4258 61.4909 18.2392 56.486C17.9334 56.3193 17.5456 56.4234 17.373 56.7152C17.2004 57.012 17.3083 57.3869 17.6141 57.5536C27.4609 62.9232 38.0805 59.0955 43.3879 49.5696C43.5541 49.2729 43.4381 48.8975 43.1291 48.7362C42.82 48.5802 42.4344 48.6892 42.2682 48.9864Z" fill="black"/>
<path d="M25.97 52.6729C26.9928 52.6729 27.8219 51.8725 27.8219 50.8849C27.8219 49.8972 26.9928 49.0968 25.97 49.0968C24.9472 49.0968 24.118 49.8972 24.118 50.8849C24.118 51.8725 24.9472 52.6729 25.97 52.6729Z" fill="black"/>
<path d="M33.6368 50.7709C34.6396 50.7709 35.4525 49.9861 35.4525 49.0177C35.4525 48.0492 34.6396 47.2645 33.6368 47.2645C32.634 47.2645 31.821 48.0492 31.821 49.0177C31.821 49.9861 32.634 50.7709 33.6368 50.7709Z" fill="black"/>
</svg>
