<svg width="28" height="28" viewBox="0 0 28 28" fill="none" xmlns="http://www.w3.org/2000/svg">
<path d="M14 25.6667C20.4433 25.6667 25.6667 20.4434 25.6667 14C25.6667 7.55672 20.4433 2.33337 14 2.33337C7.55669 2.33337 2.33334 7.55672 2.33334 14C2.33334 20.4434 7.55669 25.6667 14 25.6667Z" stroke="white" stroke-width="2" stroke-linecap="round" stroke-linejoin="round"/>
<path d="M14 19.8334H14.0115" stroke="white" stroke-width="2" stroke-linecap="round" stroke-linejoin="round"/>
<path d="M10.605 10.4999C10.8793 9.72021 11.4207 9.06272 12.1333 8.64392C12.8459 8.22512 13.6837 8.07203 14.4984 8.21176C15.313 8.3515 16.052 8.77504 16.5843 9.40738C17.1166 10.0397 17.4079 10.84 17.4067 11.6666C17.4067 13.9999 13.9067 15.1666 13.9067 15.1666" stroke="white" stroke-width="2" stroke-linecap="round" stroke-linejoin="round"/>
</svg>
