<svg width="290" height="268" viewBox="0 0 290 268" fill="none" xmlns="http://www.w3.org/2000/svg">
<path d="M174.287 123.764C98.3838 105.017 41.0578 119.566 41.0578 119.566C41.0578 119.566 24.0723 133.094 27.4287 114.088C32.7606 83.8959 -37.8118 -33.7948 79.0134 9.42924C79.0134 9.42924 126.302 24.9061 180.303 41.6219C234.303 58.3379 250.19 142.51 174.287 123.764Z" fill="#011538"/>
<path d="M221.865 133.824C209.355 145.299 213.006 136.313 99.1593 126.909C-14.6877 117.506 -34.3154 283.174 60.1664 266.328C154.648 249.482 185.965 239.017 215.425 229.574C244.884 220.13 216.061 168.429 226.478 146.343C236.896 124.256 234.375 122.349 221.865 133.824Z" fill="#011538"/>
<path d="M235.664 76.7722C236.212 75.4251 236.941 74.4174 237.853 73.7482C238.77 73.0565 239.744 72.6461 240.776 72.5179C241.832 72.3939 242.904 72.5092 243.993 72.8635C245.11 73.1994 246.118 73.7175 247.02 74.4174C247.944 75.1219 248.708 75.9636 249.311 76.9427C249.918 77.8994 250.275 78.9423 250.383 80.072C250.495 81.1792 250.28 82.3237 249.738 83.5064C249.197 84.6887 248.256 85.8373 246.916 86.9521C247.717 87.3988 248.459 87.8348 249.141 88.2605C249.823 88.6862 250.373 89.16 250.792 89.6817C251.234 90.2075 251.539 90.8042 251.709 91.4724C251.879 92.1401 251.878 92.9319 251.706 93.8472C251.564 94.6027 251.27 95.3796 250.826 96.177C250.381 96.9743 249.82 97.7395 249.141 98.4731C248.487 99.2102 247.743 99.8968 246.911 100.532C246.107 101.15 245.259 101.676 244.366 102.112C243.472 102.548 242.577 102.865 241.679 103.064C240.81 103.244 239.982 103.266 239.197 103.129C238.673 103.038 238.222 102.629 237.842 101.901C237.462 101.174 237.134 100.242 236.855 99.1061C236.576 97.9703 236.34 96.6762 236.146 95.2239C235.951 93.7721 235.801 92.28 235.695 90.7486C235.593 89.1947 235.523 87.6694 235.484 86.1732C235.45 84.6545 235.43 83.2563 235.424 81.9786C235.441 80.7049 235.463 79.6095 235.488 78.6921C235.541 77.7554 235.599 77.1158 235.664 76.7722ZM239.229 92.745C239.155 93.1345 239.154 93.6659 239.224 94.3403C239.294 95.0141 239.412 95.6966 239.577 96.3873C239.767 97.082 239.988 97.7349 240.242 98.3465C240.5 98.9351 240.815 99.3562 241.185 99.6094C241.484 99.8503 241.879 99.907 242.37 99.7794C242.865 99.6293 243.382 99.3644 243.92 98.9851C244.486 98.5869 245.04 98.1275 245.58 97.6063C246.124 97.0626 246.619 96.522 247.064 95.985C247.533 95.4516 247.91 94.9498 248.195 94.4791C248.508 93.9896 248.69 93.6077 248.742 93.3331C248.854 92.7379 248.861 92.2422 248.763 91.8471C248.669 91.429 248.477 91.0768 248.187 90.7899C247.92 90.5071 247.57 90.281 247.134 90.1105C246.723 89.9446 246.255 89.8164 245.732 89.7256C245.136 89.6219 244.489 89.6041 243.788 89.6715C243.087 89.7388 242.418 89.8945 241.783 90.139C241.171 90.3871 240.615 90.7281 240.116 91.1615C239.641 91.599 239.345 92.1268 239.229 92.745ZM239.135 80.6728C239.058 81.0847 238.949 81.5978 238.809 82.2119C238.673 82.803 238.558 83.4212 238.461 84.0659C238.365 84.7112 238.316 85.3646 238.315 86.0261C238.313 86.6882 238.424 87.2748 238.648 87.7863C239.853 87.7827 240.938 87.5693 241.902 87.1456C242.89 86.726 243.717 86.1844 244.383 85.5198C245.076 84.8362 245.624 84.0802 246.025 83.2517C246.426 82.4232 246.669 81.5906 246.752 80.7539C246.859 79.9214 246.798 79.1306 246.571 78.3818C246.366 77.6375 245.989 77.028 245.438 76.5543C244.893 76.0576 244.179 75.7329 243.299 75.5798C242.418 75.4271 241.355 75.5262 240.109 75.8774C240.074 76.0606 240.003 76.3787 239.893 76.8325C239.807 77.2904 239.704 77.7692 239.586 78.269C239.491 78.7723 239.401 79.2531 239.315 79.711C239.23 80.1689 239.169 80.4895 239.135 80.6728Z" fill="black"/>
<path d="M257.769 75.1433C257.893 74.763 258.102 74.5542 258.396 74.5175C258.711 74.4868 259.026 74.5195 259.343 74.6145C259.402 74.6323 259.508 74.6747 259.66 74.7416C259.832 74.8141 259.937 74.8564 259.977 74.8687C259.844 75.4761 259.671 76.2077 259.458 77.0627C259.25 77.8989 259.028 78.8141 258.791 79.8086C258.561 80.7836 258.337 81.803 258.121 82.8663C257.905 83.9296 257.745 84.9889 257.64 86.044C257.542 87.0798 257.505 88.0926 257.53 89.0824C257.562 90.0533 257.699 90.9308 257.944 91.7149C257.987 91.9155 258.033 92.0758 258.081 92.1948C258.155 92.3004 258.222 92.3938 258.283 92.475C258.369 92.5429 258.469 92.6042 258.582 92.6588C258.7 92.695 258.849 92.7394 259.026 92.793C259.838 93.0375 260.653 93.1371 261.472 93.0912C262.31 93.0513 263.148 92.9799 263.986 92.8768C264.823 92.7741 265.661 92.7027 266.5 92.6629C267.339 92.623 268.174 92.7282 269.004 92.9783C269.183 93.0319 269.41 93.1008 269.687 93.1841C269.97 93.2484 270.225 93.3357 270.45 93.4454C270.675 93.5547 270.851 93.7124 270.98 93.9186C271.108 94.1244 271.123 94.3796 271.024 94.6838C270.931 94.9692 270.561 95.203 269.916 95.3842C269.276 95.5471 268.485 95.6742 267.542 95.7666C266.606 95.8396 265.59 95.8886 264.496 95.9141C263.421 95.9457 262.388 95.9478 261.397 95.9207C260.426 95.8998 259.57 95.8615 258.828 95.8048C258.092 95.7293 257.615 95.6588 257.397 95.5935C256.685 95.3786 256.126 94.9595 255.721 94.3362C255.342 93.6996 255.071 92.9283 254.91 92.0232C254.775 91.1044 254.733 90.0992 254.784 89.0073C254.842 87.8965 254.961 86.7623 255.143 85.605C255.325 84.4478 255.543 83.312 255.797 82.1976C256.051 81.0827 256.311 80.0536 256.575 79.1092C256.839 78.1648 257.076 77.3378 257.285 76.6278C257.515 75.9238 257.676 75.4292 257.769 75.1433Z" fill="black"/>
<path d="M277.222 89.3861C276.335 89.7245 275.56 90.0359 274.897 90.3208C274.26 90.5908 273.646 90.8042 273.056 90.9619C272.466 91.1197 271.851 91.2003 271.213 91.2039C270.594 91.2126 269.85 91.1217 268.981 90.9318C267.1 90.5219 265.817 89.7414 265.132 88.5897C264.452 87.4192 264.336 85.8806 264.785 83.975C264.96 83.2359 265.241 82.4901 265.632 81.7366C266.022 80.9837 266.501 80.2598 267.068 79.5661C267.661 78.8565 268.313 78.2118 269.024 77.6308C269.739 77.03 270.505 76.5328 271.321 76.1382C272.137 75.7436 272.966 75.4746 273.807 75.3306C274.674 75.1724 275.542 75.1877 276.412 75.3771C277.835 75.8309 278.895 76.4302 279.592 77.175C280.292 77.9004 280.751 78.7467 280.97 79.7146C281.193 80.6626 281.259 81.6891 281.169 82.7943C281.083 83.8796 280.947 84.995 280.762 86.1405C280.597 87.2906 280.452 88.4448 280.328 89.6036C280.204 90.7623 280.252 91.867 280.472 92.9165C280.058 93.501 279.699 93.8931 279.397 94.0932C279.111 94.3168 278.846 94.3101 278.605 94.0738C278.363 93.8369 278.13 93.3362 277.906 92.572C277.703 91.8119 277.475 90.7501 277.222 89.3861ZM267.349 84.5958C267.088 85.704 267.108 86.5672 267.409 87.1849C267.735 87.7873 268.453 88.2099 269.565 88.4524C270.394 88.6336 271.215 88.6694 272.028 88.5601C272.865 88.4361 273.624 88.1926 274.304 87.8302C274.99 87.4478 275.587 86.944 276.096 86.3191C276.605 85.6938 276.96 84.9536 277.162 84.0981C277.244 83.7479 277.369 83.2639 277.536 82.6458C277.708 82.0087 277.816 81.368 277.862 80.7233C277.907 80.0791 277.842 79.5022 277.664 78.9933C277.491 78.465 277.121 78.1388 276.555 78.0157C275.503 77.786 274.471 77.8371 273.457 78.1679C272.449 78.4798 271.527 78.9637 270.691 79.6197C269.856 80.2761 269.142 81.0505 268.549 81.9433C267.96 82.8173 267.56 83.7009 267.349 84.5958Z" fill="white"/>
<path d="M273.506 115.42C272.619 115.759 271.844 116.07 271.182 116.355C270.544 116.625 269.93 116.838 269.34 116.996C268.75 117.154 268.136 117.235 267.497 117.238C266.878 117.247 266.135 117.156 265.265 116.966C263.385 116.556 262.102 115.776 261.417 114.624C260.736 113.454 260.62 111.915 261.069 110.009C261.244 109.27 261.526 108.524 261.916 107.771C262.306 107.018 262.785 106.294 263.353 105.6C263.945 104.891 264.597 104.246 265.308 103.665C266.024 103.064 266.789 102.567 267.606 102.172C268.421 101.778 269.25 101.509 270.092 101.365C270.959 101.207 271.826 101.222 272.696 101.411C274.12 101.865 275.179 102.464 275.876 103.209C276.577 103.935 277.036 104.781 277.254 105.749C277.477 106.697 277.543 107.723 277.453 108.829C277.367 109.914 277.232 111.029 277.046 112.175C276.882 113.325 276.737 114.479 276.613 115.638C276.488 116.797 276.536 117.901 276.756 118.951C276.342 119.535 275.984 119.927 275.682 120.127C275.395 120.351 275.131 120.344 274.889 120.108C274.647 119.871 274.415 119.37 274.191 118.606C273.987 117.846 273.759 116.784 273.506 115.42ZM263.634 110.63C263.372 111.738 263.392 112.602 263.693 113.219C264.019 113.822 264.738 114.244 265.85 114.487C266.679 114.668 267.499 114.704 268.312 114.594C269.149 114.47 269.908 114.227 270.589 113.864C271.274 113.482 271.872 112.978 272.38 112.353C272.889 111.728 273.244 110.988 273.446 110.132C273.529 109.782 273.653 109.298 273.82 108.68C273.992 108.043 274.1 107.402 274.146 106.758C274.192 106.113 274.126 105.537 273.948 105.028C273.775 104.499 273.406 104.173 272.839 104.05C271.788 103.82 270.755 103.871 269.742 104.202C268.733 104.514 267.811 104.998 266.976 105.654C266.141 106.31 265.427 107.085 264.833 107.978C264.245 108.852 263.845 109.735 263.634 110.63Z" fill="black"/>
<path d="M284.173 117.906C284.523 117.983 284.836 118.16 285.11 118.438C285.412 118.722 285.567 119.028 285.574 119.357C285.614 119.666 285.457 119.972 285.102 120.277C284.747 120.581 284.088 120.792 283.124 120.909C282.421 120.646 281.935 120.363 281.667 120.059C281.431 119.735 281.317 119.437 281.325 119.166C281.365 118.875 281.496 118.618 281.719 118.394C281.975 118.15 282.246 117.964 282.531 117.835C282.85 117.686 283.163 117.618 283.472 117.631C283.787 117.618 284.02 117.71 284.173 117.906ZM287.229 91.4198C288.11 90.9303 288.71 90.9109 289.029 91.3621C289.347 91.8134 289.482 92.5653 289.432 93.6179C289.409 94.6761 289.244 95.9212 288.934 97.3531C288.631 98.7589 288.305 100.201 287.956 101.679C287.635 103.163 287.332 104.569 287.047 105.897C286.789 107.231 286.663 108.308 286.668 109.127C286.576 109.516 286.47 109.847 286.349 110.121C286.228 110.394 286.078 110.607 285.901 110.759C285.723 110.911 285.474 111.007 285.153 111.046C284.838 111.059 284.438 111.012 283.953 110.907C283.871 110.889 283.8 110.832 283.737 110.737C283.674 110.641 283.646 110.403 283.651 110.023C283.661 109.616 283.718 109.015 283.82 108.22C283.929 107.398 284.111 106.265 284.367 104.822C284.649 103.384 285.004 101.58 285.43 99.4103C285.884 97.2464 286.483 94.5832 287.229 91.4198Z" fill="black"/>
<path d="M232.23 123.277C231.724 121.116 231.238 119.099 230.771 117.223C230.332 115.328 229.959 113.486 229.654 111.698C229.374 109.89 229.194 108.069 229.113 106.234C229.032 104.4 229.109 102.454 229.345 100.396C229.364 100.234 229.397 99.9448 229.445 99.5287C229.519 99.0918 229.583 98.642 229.636 98.1796C229.689 97.7171 229.74 97.2781 229.787 96.8615C229.862 96.4251 229.908 96.1254 229.927 95.9636C230.197 95.5241 230.619 95.1361 231.192 94.7992C231.791 94.4648 232.367 94.327 232.919 94.3857C232.723 96.0968 232.537 97.9264 232.362 99.8738C232.19 101.798 232.114 103.733 232.134 105.677C232.178 107.624 232.37 109.552 232.711 111.461C233.078 113.349 233.691 115.111 234.55 116.747C234.637 116.195 234.732 115.584 234.833 114.917C234.934 114.248 235.071 113.584 235.245 112.924C235.441 112.266 235.696 111.638 236.008 111.039C236.32 110.44 236.733 109.922 237.246 109.485C237.782 109.051 238.439 108.734 239.216 108.536C240.017 108.34 240.994 108.315 242.145 108.461C243.179 108.571 244.083 108.854 244.858 109.31C245.658 109.77 246.296 110.353 246.775 111.059C247.28 111.744 247.629 112.531 247.819 113.417C248.036 114.283 248.09 115.189 247.981 116.137C247.835 117.409 247.367 118.623 246.577 119.78C245.787 120.937 244.795 121.943 243.602 122.799C242.433 123.658 241.152 124.317 239.761 124.778C238.371 125.216 236.992 125.362 235.621 125.216C234.924 125.142 234.264 124.956 233.641 124.655C233.022 124.332 232.551 123.872 232.23 123.277ZM242.231 111.524C241.721 111.728 241.182 111.975 240.613 112.265C240.045 112.556 239.489 113.047 238.947 113.738C238.432 114.409 237.947 115.352 237.491 116.568C237.035 117.783 236.653 119.416 236.344 121.466C236.392 121.472 236.511 121.496 236.701 121.539C236.914 121.586 237.058 121.612 237.129 121.62C237.779 121.689 238.535 121.571 239.397 121.264C240.284 120.961 241.145 120.56 241.981 120.064C242.841 119.57 243.599 119.007 244.256 118.375C244.915 117.719 245.342 117.074 245.537 116.439C245.654 116.054 245.622 115.594 245.44 115.06C245.257 114.526 244.989 114.005 244.633 113.499C244.304 112.973 243.918 112.522 243.474 112.148C243.055 111.776 242.64 111.568 242.231 111.524Z" fill="white"/>
<path d="M253.035 103.676C253.129 103.288 253.321 103.065 253.612 103.007C253.923 102.954 254.24 102.964 254.563 103.036C254.624 103.049 254.732 103.084 254.889 103.14C255.066 103.2 255.175 103.235 255.215 103.244C255.13 103.859 255.014 104.601 254.868 105.469C254.726 106.318 254.576 107.247 254.416 108.255C254.261 109.244 254.118 110.277 253.985 111.352C253.852 112.428 253.774 113.496 253.751 114.556C253.734 115.596 253.776 116.608 253.878 117.593C253.984 118.559 254.19 119.425 254.494 120.189C254.553 120.386 254.611 120.543 254.668 120.658C254.75 120.758 254.825 120.846 254.891 120.923C254.983 120.984 255.087 121.038 255.203 121.085C255.324 121.112 255.476 121.146 255.657 121.187C256.485 121.372 257.306 121.413 258.119 121.308C258.952 121.209 259.782 121.077 260.609 120.915C261.437 120.752 262.267 120.621 263.1 120.521C263.933 120.421 264.774 120.466 265.622 120.656C265.804 120.697 266.036 120.749 266.318 120.812C266.606 120.856 266.866 120.925 267.099 121.018C267.332 121.111 267.521 121.256 267.665 121.452C267.809 121.648 267.843 121.901 267.768 122.212C267.697 122.503 267.347 122.763 266.717 122.99C266.092 123.198 265.313 123.382 264.38 123.541C263.452 123.681 262.443 123.803 261.353 123.907C260.284 124.015 259.254 124.091 258.264 124.136C257.294 124.185 256.437 124.207 255.692 124.204C254.953 124.182 254.472 124.146 254.25 124.096C253.523 123.933 252.933 123.555 252.481 122.962C252.053 122.355 251.724 121.605 251.493 120.714C251.286 119.808 251.167 118.808 251.133 117.715C251.105 116.604 251.136 115.464 251.227 114.297C251.319 113.13 251.448 111.982 251.615 110.852C251.783 109.722 251.961 108.678 252.151 107.717C252.341 106.756 252.514 105.914 252.668 105.191C252.842 104.473 252.964 103.968 253.035 103.676Z" fill="black"/>
<path fill-rule="evenodd" clip-rule="evenodd" d="M271.604 128.424C266.623 138.579 256.672 142.707 247.431 136.991C247.123 136.8 246.733 136.919 246.559 137.252C246.385 137.591 246.494 138.02 246.802 138.21C256.707 144.343 267.391 139.971 272.73 129.09C272.897 128.751 272.781 128.323 272.47 128.138C272.159 127.96 271.771 128.085 271.604 128.424Z" fill="black"/>
<path d="M255.208 132.635C256.236 132.635 257.071 131.721 257.071 130.593C257.071 129.465 256.236 128.55 255.208 128.55C254.179 128.55 253.345 129.465 253.345 130.593C253.345 131.721 254.179 132.635 255.208 132.635Z" fill="black"/>
<path d="M262.92 130.463C263.929 130.463 264.747 129.566 264.747 128.46C264.747 127.354 263.929 126.457 262.92 126.457C261.912 126.457 261.094 127.354 261.094 128.46C261.094 129.566 261.912 130.463 262.92 130.463Z" fill="black"/>
</svg>
