<svg width="22" height="22" viewBox="0 0 22 22" fill="none" xmlns="http://www.w3.org/2000/svg">
<path d="M14.4316 12.4019C14.1639 12.1124 13.8632 11.8552 13.5357 11.6355C14.8573 10.6137 15.7834 9.16503 16.1562 7.53662C16.1837 7.41894 16.1877 7.29698 16.1679 7.17776C16.1481 7.05854 16.1049 6.94441 16.0409 6.84194C15.9768 6.73946 15.8931 6.65067 15.7946 6.58067C15.6961 6.51067 15.5847 6.46084 15.4668 6.43405C15.349 6.40726 15.227 6.40403 15.1079 6.42456C14.9888 6.44509 14.8749 6.48897 14.7729 6.55367C14.6708 6.61837 14.5825 6.70262 14.5131 6.80156C14.4437 6.90051 14.3946 7.0122 14.3685 7.13021C14.1949 7.89193 13.8572 8.6066 13.379 9.22441C12.9008 9.84221 12.2936 10.3483 11.5997 10.7073V7.33525C11.5941 7.26779 11.5806 7.20122 11.5597 7.13685C11.5536 7.08385 11.543 7.03146 11.5281 6.98026C11.4889 6.89689 11.4374 6.81996 11.3752 6.75209C11.3588 6.73262 11.3505 6.70695 11.3326 6.68893C11.2654 6.62694 11.1894 6.57533 11.107 6.5358C11.0836 6.52332 11.0662 6.50223 11.0416 6.4918C10.9714 6.4684 10.8987 6.45343 10.8249 6.4472C10.7794 6.43388 10.7328 6.42431 10.6858 6.41861L10.086 6.41675H10.0833C9.86885 6.41572 9.6609 6.49027 9.49595 6.62731C9.331 6.76435 9.2196 6.95511 9.18129 7.1661C9.14299 7.3771 9.18024 7.59485 9.2865 7.78112C9.39277 7.96738 9.56125 8.11026 9.76237 8.18468V12.6678C8.30975 11.1599 7.34789 9.24741 7.00342 7.18216C6.98332 7.06349 6.94004 6.94994 6.87605 6.84799C6.81206 6.74604 6.72862 6.6577 6.63049 6.588C6.53236 6.5183 6.42146 6.46861 6.30413 6.44177C6.1868 6.41493 6.06532 6.41146 5.94665 6.43156C5.82798 6.45166 5.71442 6.49495 5.61248 6.55893C5.51053 6.62292 5.42218 6.70636 5.35248 6.80449C5.28278 6.90262 5.2331 7.01352 5.20625 7.13085C5.17941 7.24819 5.17594 7.36966 5.19605 7.48833C5.73174 10.6807 7.5119 13.5302 10.146 15.4116C10.1835 15.4341 10.2227 15.4538 10.2631 15.4707C10.2949 15.4893 10.3278 15.5059 10.3616 15.5203C10.464 15.5612 10.5729 15.5832 10.6831 15.5852C10.8179 15.5836 10.9507 15.5517 11.0716 15.4919C11.0807 15.4876 11.0912 15.4896 11.1002 15.485C11.1812 15.4428 11.2554 15.3886 11.3203 15.3243C11.3334 15.3116 11.3421 15.296 11.3544 15.2826C11.4135 15.2176 11.4629 15.1443 11.501 15.0651C11.5137 15.0388 11.5254 15.0137 11.5356 14.9861C11.5759 14.885 11.5976 14.7774 11.5997 14.6686L11.6002 12.7197C12.1681 12.8865 12.6799 13.205 13.0804 13.6409L14.591 15.288C14.6722 15.377 14.7703 15.4491 14.8794 15.5002C14.9886 15.5513 15.1068 15.5803 15.2272 15.5857C15.3476 15.591 15.4679 15.5725 15.5812 15.5313C15.6944 15.4901 15.7984 15.427 15.8873 15.3455C15.9761 15.264 16.048 15.1658 16.0988 15.0566C16.1496 14.9473 16.1784 14.829 16.1835 14.7086C16.1885 14.5882 16.1698 14.4679 16.1283 14.3548C16.0869 14.2416 16.0235 14.1377 15.9418 14.0491L14.4316 12.4019ZM13.8166 0.916748H8.19267C2.54854 0.916748 0.916626 2.54687 0.916626 8.18294V13.8074C0.916626 19.4515 2.5463 21.0834 8.18327 21.0834H13.8073C19.4514 21.0834 21.0833 19.4533 21.0833 13.8172V8.19279C21.0833 2.54866 19.4536 0.916748 13.8166 0.916748ZM19.25 13.8172C19.25 18.4373 18.4362 19.2501 13.8073 19.2501H8.18327C3.56234 19.2501 2.74996 18.4364 2.74996 13.8074V8.18294C2.74996 3.56291 3.56368 2.75008 8.19267 2.75008H13.8166C18.4376 2.75008 19.25 3.56381 19.25 8.19279V13.8172Z" fill="black"/>
</svg>
